<mxfile host="Electron" agent="Mozilla/5.0 (Windows NT 10.0; Win64; x64) AppleWebKit/537.36 (KHTML, like Gecko) draw.io/26.2.15 Chrome/134.0.6998.205 Electron/35.2.1 Safari/537.36" version="26.2.15">
  <diagram name="Page-1" id="KIFtCT3ZrXa_p-0UGA44">
    <mxGraphModel dx="925" dy="616" grid="1" gridSize="10" guides="1" tooltips="1" connect="1" arrows="1" fold="1" page="1" pageScale="1" pageWidth="850" pageHeight="1100" math="0" shadow="0">
      <root>
        <mxCell id="0" />
        <mxCell id="1" parent="0" />
        <mxCell id="KUJdH1YkrzfsvDCrPkwL-6" style="edgeStyle=orthogonalEdgeStyle;rounded=0;orthogonalLoop=1;jettySize=auto;html=1;entryX=0.5;entryY=0;entryDx=0;entryDy=0;" edge="1" parent="1" source="KUJdH1YkrzfsvDCrPkwL-1" target="KUJdH1YkrzfsvDCrPkwL-3">
          <mxGeometry relative="1" as="geometry" />
        </mxCell>
        <mxCell id="KUJdH1YkrzfsvDCrPkwL-1" value="ATM_EMoney" style="rounded=1;whiteSpace=wrap;html=1;" vertex="1" parent="1">
          <mxGeometry x="320" y="140" width="145" height="40" as="geometry" />
        </mxCell>
        <mxCell id="KUJdH1YkrzfsvDCrPkwL-2" value="" style="endArrow=classic;html=1;rounded=0;entryX=0.5;entryY=0;entryDx=0;entryDy=0;dashed=1;startArrow=ERmandOne;startFill=0;targetPerimeterSpacing=0;strokeWidth=2;" edge="1" parent="1" target="KUJdH1YkrzfsvDCrPkwL-1">
          <mxGeometry width="50" height="50" relative="1" as="geometry">
            <mxPoint x="393" y="80" as="sourcePoint" />
            <mxPoint x="440" y="30" as="targetPoint" />
          </mxGeometry>
        </mxCell>
        <mxCell id="KUJdH1YkrzfsvDCrPkwL-5" value="" style="group" vertex="1" connectable="0" parent="1">
          <mxGeometry x="197.5" y="220" width="390" height="60" as="geometry" />
        </mxCell>
        <mxCell id="KUJdH1YkrzfsvDCrPkwL-3" value="status&amp;nbsp;←&amp;nbsp;" style="rounded=0;whiteSpace=wrap;html=1;align=left;spacingTop=0;spacingLeft=6;" vertex="1" parent="KUJdH1YkrzfsvDCrPkwL-5">
          <mxGeometry width="390" height="60" as="geometry" />
        </mxCell>
        <mxCell id="KUJdH1YkrzfsvDCrPkwL-4" value="&lt;font style=&quot;font-size: 11px;&quot;&gt;card_management(cardDatabase, databaseFile)&lt;/font&gt;" style="shape=process;whiteSpace=wrap;html=1;backgroundOutline=1;" vertex="1" parent="KUJdH1YkrzfsvDCrPkwL-5">
          <mxGeometry x="60" y="10" width="320" height="40" as="geometry" />
        </mxCell>
        <mxCell id="KUJdH1YkrzfsvDCrPkwL-10" style="edgeStyle=orthogonalEdgeStyle;rounded=0;orthogonalLoop=1;jettySize=auto;html=1;exitX=1;exitY=0.5;exitDx=0;exitDy=0;entryX=0.5;entryY=0;entryDx=0;entryDy=0;" edge="1" parent="1" source="KUJdH1YkrzfsvDCrPkwL-7" target="KUJdH1YkrzfsvDCrPkwL-9">
          <mxGeometry relative="1" as="geometry" />
        </mxCell>
        <mxCell id="KUJdH1YkrzfsvDCrPkwL-18" value="T" style="edgeLabel;html=1;align=center;verticalAlign=middle;resizable=0;points=[];" vertex="1" connectable="0" parent="KUJdH1YkrzfsvDCrPkwL-10">
          <mxGeometry x="-0.4563" relative="1" as="geometry">
            <mxPoint x="-7" y="-10" as="offset" />
          </mxGeometry>
        </mxCell>
        <mxCell id="KUJdH1YkrzfsvDCrPkwL-12" style="edgeStyle=orthogonalEdgeStyle;rounded=0;orthogonalLoop=1;jettySize=auto;html=1;exitX=0.5;exitY=1;exitDx=0;exitDy=0;entryX=0.5;entryY=0;entryDx=0;entryDy=0;" edge="1" parent="1" source="KUJdH1YkrzfsvDCrPkwL-7" target="KUJdH1YkrzfsvDCrPkwL-11">
          <mxGeometry relative="1" as="geometry" />
        </mxCell>
        <mxCell id="KUJdH1YkrzfsvDCrPkwL-19" value="F" style="edgeLabel;html=1;align=center;verticalAlign=middle;resizable=0;points=[];" vertex="1" connectable="0" parent="KUJdH1YkrzfsvDCrPkwL-12">
          <mxGeometry x="0.2392" relative="1" as="geometry">
            <mxPoint x="8" y="-5" as="offset" />
          </mxGeometry>
        </mxCell>
        <mxCell id="KUJdH1YkrzfsvDCrPkwL-7" value="status&amp;nbsp;≠ STATUS_VALID" style="rhombus;whiteSpace=wrap;html=1;" vertex="1" parent="1">
          <mxGeometry x="334" y="320" width="117" height="120" as="geometry" />
        </mxCell>
        <mxCell id="KUJdH1YkrzfsvDCrPkwL-8" style="edgeStyle=orthogonalEdgeStyle;rounded=0;orthogonalLoop=1;jettySize=auto;html=1;entryX=0.5;entryY=0;entryDx=0;entryDy=0;" edge="1" parent="1" source="KUJdH1YkrzfsvDCrPkwL-3" target="KUJdH1YkrzfsvDCrPkwL-7">
          <mxGeometry relative="1" as="geometry" />
        </mxCell>
        <mxCell id="KUJdH1YkrzfsvDCrPkwL-20" style="edgeStyle=orthogonalEdgeStyle;rounded=0;orthogonalLoop=1;jettySize=auto;html=1;exitX=0.5;exitY=1;exitDx=0;exitDy=0;entryX=1;entryY=0.5;entryDx=0;entryDy=0;" edge="1" parent="1" source="KUJdH1YkrzfsvDCrPkwL-9" target="KUJdH1YkrzfsvDCrPkwL-14">
          <mxGeometry relative="1" as="geometry" />
        </mxCell>
        <mxCell id="KUJdH1YkrzfsvDCrPkwL-9" value="panggilPetugas&amp;nbsp;← True" style="rounded=0;whiteSpace=wrap;html=1;" vertex="1" parent="1">
          <mxGeometry x="510" y="485" width="160" height="40" as="geometry" />
        </mxCell>
        <mxCell id="KUJdH1YkrzfsvDCrPkwL-13" style="edgeStyle=orthogonalEdgeStyle;rounded=0;orthogonalLoop=1;jettySize=auto;html=1;entryX=0.5;entryY=0;entryDx=0;entryDy=0;" edge="1" parent="1" source="KUJdH1YkrzfsvDCrPkwL-11" target="KUJdH1YkrzfsvDCrPkwL-14">
          <mxGeometry relative="1" as="geometry">
            <mxPoint x="392.5" y="680" as="targetPoint" />
          </mxGeometry>
        </mxCell>
        <mxCell id="KUJdH1YkrzfsvDCrPkwL-11" value="output(berhasil_keluar)" style="shape=parallelogram;perimeter=parallelogramPerimeter;whiteSpace=wrap;html=1;fixedSize=1;" vertex="1" parent="1">
          <mxGeometry x="309" y="480" width="167" height="50" as="geometry" />
        </mxCell>
        <mxCell id="KUJdH1YkrzfsvDCrPkwL-21" style="edgeStyle=orthogonalEdgeStyle;rounded=0;orthogonalLoop=1;jettySize=auto;html=1;exitX=0.5;exitY=1;exitDx=0;exitDy=0;dashed=1;strokeWidth=2;endArrow=doubleBlock;endFill=1;" edge="1" parent="1" source="KUJdH1YkrzfsvDCrPkwL-14">
          <mxGeometry relative="1" as="geometry">
            <mxPoint x="393" y="750" as="targetPoint" />
          </mxGeometry>
        </mxCell>
        <mxCell id="KUJdH1YkrzfsvDCrPkwL-14" value="ATM_EMoney&amp;nbsp;← False" style="rounded=0;whiteSpace=wrap;html=1;" vertex="1" parent="1">
          <mxGeometry x="313" y="600" width="159" height="50" as="geometry" />
        </mxCell>
      </root>
    </mxGraphModel>
  </diagram>
</mxfile>
